<?xml version="1.0" encoding="UTF-8"?>
<svg version="1.1" viewBox="0 0 1600 1600" width="1280" height="1280" xmlns="http://www.w3.org/2000/svg">
<path transform="translate(687,166)" d="m0 0c1.02 0.74 2.04 1.48 3.09 2.24 6.81 4.99 13.3 10.3 19.8 15.7 4.49 3.73 9.03 7.35 13.7 10.8 0.452 0.407 0.905 0.815 1.37 1.23v2c0.596 0.271 1.19 0.542 1.81 0.822 2.16 1.16 3.57 2.3 5.29 4.03 0.578 0.575 1.16 1.15 1.75 1.74 0.92 0.931 0.92 0.931 1.86 1.88 0.644 0.644 1.29 1.29 1.95 1.95 1.36 1.36 2.72 2.73 4.08 4.1 2.05 2.07 4.12 4.14 6.18 6.2 1.33 1.33 2.65 2.66 3.98 4 0.608 0.609 1.22 1.22 1.84 1.84 3.74 3.78 7.3 7.68 10.8 11.7 1.82 2.1 3.72 4.13 5.62 6.16 5.23 5.79 9.87 12 14.6 18.2 3.16 4.18 6.38 8.31 9.62 12.4 0.711 0.903 0.711 0.903 1.44 1.82 1.08 1.37 2.17 2.74 3.25 4.11 3.86-1.29 4.64-2.9 7-6.19 0.801-1.1 1.6-2.19 2.41-3.29 0.422-0.576 0.843-1.15 1.28-1.75 6-8.11 12.3-15.9 19.1-23.3 2.37-2.64 4.59-5.36 6.81-8.12 3.15-3.91 6.42-7.52 10.1-11 1.43-1.33 1.43-1.33 2.31-3.34h2c0.66-1.32 1.32-2.64 2-4h2v-2c1.29-1.27 1.29-1.27 3.19-2.81 3.93-3.33 7.53-6.89 11.1-10.6 4.73-4.8 9.61-9.21 14.9-13.4 2.48-1.98 4.88-4.02 7.26-6.1 8.42-7.3 17.4-13.7 26.5-20.1 1.01-0.72 1.01-0.72 2.04-1.45 10.3-7.29 20.9-13.9 31.7-20.2 1.89-1.11 3.77-2.25 5.64-3.4 57.2-34.3 127-50.2 193-50.1 1.2 0.0014 1.2 0.0014 2.42 0.00284 36.8 0.0923 73.3 3.91 109 13.2 1.11 0.277 2.21 0.553 3.36 0.838 28.7 7.17 56.4 17.2 82.8 30.7 2.93 1.5 5.88 2.97 8.83 4.44 12.1 6.11 23.6 12.9 34.8 20.5 2.08 1.4 4.18 2.77 6.29 4.12 8.53 5.52 16.5 11.6 24.3 18 2.21 1.81 4.46 3.57 6.71 5.34 11.2 9.01 21.8 18.5 31.9 28.7 1.87 1.88 3.75 3.75 5.63 5.62 6.93 6.93 13.3 14 19.4 21.7 0.982 1.17 1.97 2.34 2.97 3.5 11.2 13 20.8 26.8 30.3 41 1.36 2.03 2.74 4.04 4.12 6.05 8.18 12.2 14.8 25.4 21.6 38.5 0.411 0.776 0.823 1.55 1.25 2.35 2.38 4.49 4.61 9.04 6.75 13.6 0.461 0.99 0.921 1.98 1.4 3 9.44 20.5 16.9 41.5 23.6 63 0.326 1.03 0.652 2.07 0.987 3.13 8.32 26.7 13.3 54.2 17 81.9 0.155 1.15 0.309 2.31 0.468 3.5 11.3 86.4-0.0723 173-30.5 255-0.408 1.1-0.815 2.2-1.24 3.33-3.44 9.14-7.24 18-11.7 26.6-1.65 3.22-3.15 6.5-4.63 9.8-6.52 14.5-13.6 28.4-21.6 42.2-1.74 3.02-3.46 6.05-5.17 9.08-7.83 13.8-16.4 26.9-25.5 39.9-2.06 2.98-4.08 5.97-6.09 8.98-6.82 10.2-13.9 19.9-21.6 29.4-2.22 2.72-4.36 5.51-6.49 8.3-0.404 0.528-0.809 1.06-1.23 1.6-1.64 2.14-3.27 4.28-4.91 6.42-7.87 10.3-15.9 20.4-24.6 30-4.02 4.43-7.94 8.95-11.8 13.5-6.12 7.19-12.3 14.3-18.8 21.2-1.68 1.81-3.36 3.62-5.03 5.43-5.45 5.88-10.9 11.7-16.6 17.3-1.68 1.71-3.24 3.47-4.78 5.31-5.21 5.99-10.9 11.5-16.5 17.1-1.2 1.2-2.41 2.41-3.61 3.61-2.51 2.51-5.03 5.03-7.54 7.54-3.21 3.2-6.41 6.4-9.61 9.61-2.48 2.49-4.97 4.97-7.45 7.45-1.18 1.18-2.36 2.36-3.54 3.54-11.1 11.1-11.1 11.1-17.2 16.2-1.8 1.57-3.48 3.23-5.15 4.94-2.33 2.37-4.72 4.59-7.25 6.75-3.41 2.93-6.59 6.05-9.75 9.25-3.63 3.67-7.32 7.19-11.2 10.5-1.89 1.66-3.73 3.34-5.56 5.06-0.587 0.55-1.17 1.1-1.78 1.67-1.18 1.11-2.35 2.22-3.52 3.33-4.17 3.91-4.17 3.91-6.39 3.91v2c-1.49 1.33-3.05 2.59-4.62 3.81-4.71 3.76-9.17 7.69-13.6 11.8-4.24 3.98-8.49 7.91-12.9 11.7-2.33 2.03-4.63 4.1-6.92 6.17-3.62 3.26-7.26 6.49-10.9 9.69-2.37 2.08-4.72 4.2-7.06 6.31-0.835 0.752-1.67 1.5-2.53 2.28-1.61 1.45-3.21 2.9-4.81 4.35-0.712 0.638-1.42 1.28-2.16 1.93-0.629 0.568-1.26 1.14-1.91 1.72-1.59 1.21-1.59 1.21-3.59 1.21v2c-1.64 1.45-3.34 2.84-5.06 4.19-3.31 2.65-6.5 5.25-9.44 8.31-3.59 3.72-7.58 6.87-11.6 10.1-2.88 2.38-5.64 4.85-8.39 7.39-4.47 4.11-9.09 7.97-13.8 11.8-2.63 2.17-5.16 4.42-7.68 6.71-4.3 3.92-8.76 7.59-13.3 11.2-2.64 2.19-5.19 4.44-7.72 6.75-4.23 3.85-8.59 7.47-13 11.1-8.95 7.33-17.6 15-26.4 22.6-7.08 6.15-14.2 12.2-21.3 18.3-6.61 5.65-13.2 11.3-19.8 17-6.57 5.7-13.2 11.4-19.8 17-2.91 2.49-5.82 4.99-8.73 7.48-1.17 1-2.33 2-3.5 3l-1.75 1.5c-19.2 16.5-19.2 16.5-21 18-1.17 1-2.34 2-3.5 3-2.9 2.49-5.81 4.98-8.71 7.46-6.03 5.16-12 10.3-18 15.5-4.84 4.2-9.69 8.39-14.6 12.6-0.571 0.489-1.14 0.978-1.73 1.48-2.95 2.52-5.89 5.04-8.84 7.56-5.24 4.47-10.5 8.95-15.6 13.6-4.24 3.85-8.64 7.46-13.1 11.1-2.64 2.19-5.19 4.44-7.72 6.75-4.29 3.9-8.71 7.61-13.2 11.2-1.83 1.49-3.64 3-5.42 4.54-21.3 18.2-46.7 25.2-74.4 23.7-27.8-2.72-48.1-19.7-68.1-37.3-3.14-2.75-6.3-5.49-9.46-8.22-0.621-0.539-1.24-1.08-1.88-1.63-4.75-4.11-9.51-8.2-14.3-12.3-4.27-3.66-8.52-7.33-12.8-11-6.57-5.7-13.2-11.4-19.8-17-3.5-2.99-6.99-5.99-10.5-8.99-2.9-2.49-5.81-4.98-8.71-7.46-6.66-5.7-13.3-11.4-19.9-17.2-6.51-5.65-13.1-11.3-19.6-16.9-2.31-1.98-4.63-3.96-6.94-5.94-0.573-0.49-1.15-0.981-1.74-1.49-3.06-2.62-6.11-5.26-9.15-7.9-6.46-5.63-13-11.2-19.6-16.6-3.44-2.85-6.72-5.86-10-8.86-2.6-2.31-5.26-4.5-7.96-6.68-3.8-3.08-7.46-6.25-11.1-9.56-4.37-4.02-8.88-7.8-13.5-11.5-5.47-4.49-10.8-9.18-16.1-13.8-2.98-2.58-5.97-5.15-8.96-7.71-0.573-0.491-1.15-0.982-1.74-1.49-1.16-0.989-2.31-1.98-3.47-2.97-2.91-2.49-5.82-4.99-8.73-7.48-1.17-1-2.33-2-3.5-3-21-18-21-18-22.8-19.5-1.16-0.993-2.32-1.99-3.48-2.98-3.04-2.61-6.09-5.22-9.12-7.84-0.632-0.543-1.26-1.09-1.91-1.65-1.21-1.04-2.41-2.08-3.62-3.12-2.29-1.97-4.56-3.88-7.02-5.63-0.793-0.636-0.793-0.636-1.6-1.29v-2c-0.541-0.223-1.08-0.446-1.64-0.676-3.11-1.75-5.54-4.08-8.11-6.51-1.07-1-2.15-2-3.23-3-0.52-0.485-1.04-0.97-1.58-1.47-2.44-2.25-4.95-4.42-7.46-6.6-2.35-2.06-4.67-4.15-6.99-6.24-2.98-2.69-5.97-5.36-9-8-5.56-4.84-11-9.79-16.5-14.8-4.17-3.79-8.38-7.47-12.8-11-5.28-4.26-10.2-8.83-15.2-13.5-3.04-2.97-3.04-2.97-6.59-5.25v-2c-0.893-0.409-0.893-0.409-1.8-0.827-2.13-1.14-3.6-2.28-5.34-3.94l-1.78-1.68c-0.936-0.895-0.936-0.895-1.89-1.81-1.35-1.28-2.71-2.56-4.06-3.84-0.688-0.653-1.38-1.31-2.09-1.98-3.12-2.96-6.27-5.88-9.42-8.81-6.03-5.62-12-11.3-18-16.9-0.962-0.907-0.962-0.907-1.94-1.83-0.717-0.677-1.43-1.35-2.17-2.05-1.79-1.67-3.58-3.33-5.39-4.98-12.3-11.3-24.1-23.1-35.9-34.9-3.09-3.09-6.18-6.16-9.27-9.24-2.39-2.38-4.78-4.77-7.17-7.16-1.14-1.14-2.28-2.28-3.42-3.41-1.58-1.57-3.16-3.15-4.73-4.73-1.34-1.34-1.34-1.34-2.72-2.71-1.91-2.16-1.91-2.16-1.91-4.16h-2c-1.45-1.47-1.45-1.47-3.12-3.5-2.52-2.97-5.1-5.78-7.88-8.5-3.28-3.22-6.3-6.59-9.29-10.1-1.63-1.83-3.32-3.53-5.08-5.23-2.83-2.78-5.33-5.72-7.81-8.81-3.45-4.29-7.05-8.36-10.8-12.4-4.44-4.75-8.65-9.62-12.7-14.7-2.07-2.55-4.17-5.05-6.31-7.54-5.47-6.39-10.7-13-15.7-19.7-2-2.63-4.02-5.24-6.03-7.86-0.827-1.08-1.65-2.15-2.48-3.23-1.97-2.57-3.96-5.13-5.95-7.7-5.45-7.04-10.8-14.1-15.6-21.6-2.21-3.37-4.48-6.69-6.77-10-10.7-15.5-20.6-31.1-29.8-47.5-1.56-2.76-3.15-5.51-4.75-8.26-15.7-27.2-29.6-56.1-39.9-85.8-0.664-1.91-1.34-3.81-2.02-5.71-28.8-80.2-35.7-165-15.9-296 0.217-0.975 0.434-1.95 0.658-2.95 10.1-44.9 27.1-87.8 49.3-128 0.508-0.926 1.02-1.85 1.54-2.8 5.8-10.5 12.2-20.5 19.1-30.2 1.37-1.96 2.71-3.95 4.05-5.94 6.57-9.81 13.7-19 21.3-28 0.496-0.595 0.991-1.19 1.5-1.8 9.78-11.7 20-22.9 30.8-33.7 1.87-1.88 3.74-3.78 5.6-5.67 6.98-7.04 14.2-13.5 22.1-19.5 2.38-1.81 4.69-3.65 6.96-5.6 12.2-10.4 25.6-19.1 39.1-27.7 0.855-0.555 1.71-1.11 2.59-1.68 33.4-21.6 71.4-37.9 110-47.7 2.67-0.681 5.33-1.4 7.99-2.13 24.7-6.6 50-10.2 75.5-12.5l2.42-0.218c87.6-7.36 175 14.6 273 77.2zm-361 36c-0.836 0.316-1.67 0.632-2.53 0.957-10.8 4.11-21.3 8.65-31.5 14-1.93 1.01-3.88 1.98-5.83 2.95-18.8 9.47-36.6 21-52.5 34.7-2.2 1.87-4.49 3.64-6.77 5.41-15.7 12.5-30.5 27.1-42.8 42.9-1.42 1.69-2.83 3.38-4.25 5.06-6.29 7.7-12.1 15.8-17.8 23.9-0.467 0.667-0.933 1.33-1.41 2.02-13.9 20.1-25 42.5-34.6 65-0.34 0.781-0.681 1.56-1.03 2.37-33.3 76.8-39.2 166-2.33 323 11.4 28.8 25.5 55.9 41.4 82.4 0.681 1.14 0.681 1.14 1.38 2.3 6.47 10.8 13.6 21 20.9 31.2 1.65 2.33 3.28 4.67 4.91 7.01 5.91 8.48 12.1 16.7 18.5 24.8 2.18 2.76 4.31 5.56 6.45 8.35 10 13.1 20.6 25.7 31.7 37.9 2.18 2.46 4.23 4.99 6.28 7.56 7.79 9.63 16.5 18.6 25.3 27.3 1.67 1.71 3.22 3.49 4.77 5.31 3.11 3.61 6.42 6.97 9.81 10.3 3.26 3.22 6.47 6.44 9.44 9.94 3.29 3.86 6.81 7.46 10.4 11.1 0.864 0.884 0.864 0.884 1.75 1.78 1.44 1.44 2.94 2.84 4.44 4.22h2c0.33 0.99 0.66 1.98 1 3 1.39 1.41 1.39 1.41 3.19 2.81 4.01 3.4 7.73 7.02 11.4 10.8 0.595 0.599 1.19 1.2 1.8 1.81 2.48 2.5 4.96 5.01 7.44 7.52 9.02 9.15 9.02 9.15 18.6 17.8 2.14 1.84 4.11 3.82 6.07 5.85 3.4 3.45 6.92 6.67 10.6 9.82 1.88 1.66 3.64 3.39 5.4 5.18 2.95 2.99 6.03 5.75 9.21 8.49 2.23 1.95 4.4 3.95 6.57 5.96 5.27 4.88 10.7 9.49 16.3 14 2.71 2.26 5.13 4.69 7.57 7.23 2.34 2.26 4.84 4.27 7.38 6.31 3.16 2.54 6.18 5.08 9 8 2.69 2.79 5.54 5.2 8.56 7.62 5.83 4.69 11.3 9.75 16.7 14.9 3.04 2.85 6.15 5.62 9.31 8.34 2.27 1.98 4.49 4.01 6.72 6.04 3.44 3.11 6.95 6.09 10.6 9 4.55 3.68 8.86 7.55 13.1 11.5 4.13 3.82 8.45 7.38 12.8 10.9 2.62 2.16 5.14 4.39 7.65 6.68 3.42 3.11 6.91 6.09 10.5 9 4.46 3.61 8.73 7.38 13 11.2 2.62 2.33 5.31 4.55 8.03 6.75 4.46 3.61 8.73 7.38 13 11.2 2.62 2.33 5.31 4.55 8.03 6.75 4.46 3.61 8.73 7.39 13 11.3 2.6 2.31 5.26 4.5 7.96 6.68 4.77 3.86 9.29 7.93 13.8 12.1 3.59 3.22 7.32 6.23 11.1 9.26 3.49 2.88 6.81 5.92 10.2 8.97 2.6 2.31 5.26 4.5 7.96 6.68 4.77 3.86 9.29 7.93 13.8 12.1 3.59 3.22 7.32 6.23 11.1 9.26 2.63 2.17 5.16 4.42 7.68 6.71 3.42 3.11 6.91 6.09 10.5 9 4.46 3.61 8.73 7.38 13 11.2 2.62 2.33 5.31 4.55 8.03 6.75 4.46 3.61 8.73 7.39 13 11.3 2.6 2.31 5.26 4.5 7.96 6.68 4.77 3.86 9.3 7.94 13.8 12.1 2.69 2.41 5.44 4.7 8.25 6.97 3.78 3.05 7.42 6.21 11 9.5 4.36 4.01 8.85 7.78 13.5 11.5 4.38 3.61 8.65 7.34 12.9 11.1 2.97 2.59 5.92 5.13 9.13 7.43 4.06-1.68 7.11-4.51 10.4-7.38 1.26-1.09 2.52-2.18 3.77-3.27 0.64-0.558 1.28-1.12 1.94-1.69 2.96-2.57 5.93-5.11 8.91-7.66 1.17-1 2.33-2 3.5-3 7-6 7-6 8.75-7.5 1.17-1 2.34-2 3.5-3 2.9-2.49 5.81-4.98 8.71-7.46 6.03-5.16 12-10.3 18-15.5 6.57-5.7 13.2-11.4 19.8-17 2.91-2.49 5.82-4.99 8.73-7.48 1.17-1 2.33-2 3.5-3 0.578-0.495 1.15-0.99 1.75-1.5 19.3-16.5 19.3-16.5 21-18 1.17-1 2.34-2 3.5-3 2.9-2.49 5.81-4.98 8.71-7.46 6.03-5.16 12-10.3 18-15.5 5.98-5.19 12-10.3 18-15.5 2.48-2.12 4.96-4.25 7.43-6.39 0.641-0.553 1.28-1.11 1.94-1.68 1.23-1.06 2.47-2.13 3.7-3.2 4.22-3.63 4.22-3.63 6.44-4.74v-2c0.529-0.219 1.06-0.438 1.6-0.664 3.28-1.83 5.97-4.25 8.77-6.71 1.26-1.09 2.52-2.19 3.78-3.28l1.94-1.69c2.93-2.55 5.89-5.07 8.84-7.59 3.64-3.12 7.28-6.24 10.9-9.39 6.46-5.63 13-11.2 19.6-16.6 3.43-2.85 6.71-5.85 10-8.86 3.51-3.12 7.16-6.05 10.8-9 3.5-2.89 6.84-5.95 10.2-9 2.6-2.31 5.26-4.5 7.96-6.68 4.77-3.86 9.29-7.93 13.8-12.1 2.77-2.49 5.62-4.83 8.52-7.17 3.77-3.04 7.23-6.18 10.6-9.65 4.01-4.04 8.44-7.64 12.8-11.3 6.77-5.75 13.4-11.6 19.8-17.7 3.39-3.17 6.85-6.18 10.5-9.08 6-4.8 11.5-10.1 17.1-15.3 3.12-2.94 6.31-5.79 9.56-8.59 3.11-2.7 6.15-5.47 9.2-8.23 2.16-1.93 4.33-3.84 6.52-5.74 4.04-3.53 7.96-7.17 11.9-10.9 4.89-4.61 9.8-9.2 14.8-13.8 1.63-1.5 3.25-3 4.88-4.5 1.13-1.05 2.27-2.09 3.4-3.13 12.2-11.2 23.9-23 35.6-34.8 0.989-0.995 0.989-0.995 2-2.01 1.24-1.25 2.48-2.5 3.72-3.76 2.7-2.72 5.41-5.28 8.4-7.68 0.85-0.728 1.7-1.46 2.58-2.21v-2c0.99-0.33 1.98-0.66 3-1 1.37-1.36 1.37-1.36 2.75-3.12 4.42-5.26 9.34-9.99 14.3-14.8 0.642-0.63 1.28-1.26 1.94-1.91 0.584-0.567 1.17-1.13 1.77-1.72 1.48-1.41 1.48-1.41 1.27-3.48h2c1.5-1.48 1.5-1.48 3.06-3.44 2.69-3.17 5.47-6.15 8.44-9.06 3.39-3.35 6.59-6.79 9.7-10.4 2.02-2.34 4.1-4.62 6.18-6.9 3.13-3.46 6.13-6.99 9.06-10.6 3.03-3.75 6.16-7.34 9.44-10.9 5.2-5.67 9.91-11.6 14.6-17.7 2.18-2.83 4.38-5.64 6.57-8.46 1.78-2.29 3.55-4.57 5.33-6.86 2.41-3.1 4.83-6.19 7.27-9.27 6.68-8.45 13-17 18.8-26 1.83-2.79 3.71-5.54 5.59-8.29 15.7-23.1 29.5-47.1 41.9-72 0.718-1.43 0.718-1.43 1.45-2.89 14.5-29.2 25-60.4 32.5-92.1 0.208-0.836 0.415-1.67 0.629-2.53 2.82-11.4 4.41-23 6.06-34.6 0.109-0.758 0.218-1.52 0.33-2.3 2.56-18 3.17-35.7 3.17-53.9 0.00218-3.21 0.0204-6.41 0.0393-9.62 0.0562-20.2-1.5-40.1-4.41-60.1-0.106-0.731-0.212-1.46-0.322-2.22-7.98-54.3-26.1-110-56.5-156-0.607-0.937-1.21-1.87-1.84-2.84-2.02-3.08-4.08-6.12-6.16-9.16-0.438-0.645-0.877-1.29-1.33-1.95-6.09-8.93-12.4-17.4-19.6-25.5-2.53-2.86-4.91-5.81-7.3-8.79-4.73-5.8-9.85-11.1-15.2-16.4-0.869-0.877-1.74-1.75-2.63-2.66-6.02-6-12.3-11.4-19-16.7-1.34-1.08-2.67-2.17-4-3.26-6.83-5.52-13.7-10.9-21-15.7-0.589-0.395-1.18-0.79-1.79-1.2-10-6.69-20.2-12.9-30.8-18.5-1.58-0.845-3.16-1.7-4.73-2.56-60.9-33.4-137-44.5-206-33.7-1.07 0.166-2.13 0.333-3.23 0.504-31 5.02-61.2 14.8-89 29.5-1.84 0.977-3.69 1.93-5.55 2.88-24.5 12.7-46.3 29-66.6 47.7-2.73 2.44-5.53 4.74-8.38 7.03-6.78 5.49-12.7 11.5-18.3 18.1-1.9 2.17-3.85 4.3-5.81 6.42-12 12.9-22.7 26.6-33.2 40.8-0.549 0.749-1.1 1.5-1.66 2.27-5.68 7.79-11 15.7-16 24-11.2 18.6-23.1 30.8-44.5 36.6-16.2 3.29-31.1-0.32-44.9-8.85-1.14-0.702-1.14-0.702-2.31-1.42-11.3-7.81-18.2-21.2-25.3-32.6-4.51-7.23-9.35-14.1-14.4-21-0.737-1-1.47-2-2.23-3.04-8.47-11.4-17.1-22.6-26.8-33-1.63-1.76-3.27-3.52-4.9-5.27-1.14-1.23-2.29-2.46-3.44-3.69-2.83-3.04-5.61-6.11-8.29-9.29-6.65-7.69-14.7-14.1-22.6-20.4-2.46-2.05-4.81-4.18-7.13-6.38-6.23-5.88-12.8-10.9-19.9-15.7-1.77-1.21-3.53-2.43-5.28-3.65-84.2-58-195-70.9-299-33.6z" fill="#000002"/>
</svg>
